<svg width="60" height="60" viewBox="0 0 60 60" fill="none" xmlns="http://www.w3.org/2000/svg">
<g clip-path="url(#clip0_215_2)">
<path d="M23.7064 15.5045C25.3336 21.4567 24.225 26.9456 21.2304 27.7642C18.2359 28.5828 14.4892 24.4213 12.862 18.4691C11.2349 12.5168 12.3434 7.028 15.338 6.20937C18.3326 5.39074 22.0793 9.55233 23.7064 15.5045Z" fill="#FFB900"/>
<path d="M38.8885 11.3542C40.5157 17.3064 39.4071 22.7953 36.4126 23.6139C33.418 24.4325 29.6713 20.2709 28.0441 14.3187C26.417 8.36652 27.5255 2.87767 30.5201 2.05904C33.5147 1.24041 37.2614 5.402 38.8885 11.3542Z" fill="#FFB900"/>
<path d="M54.942 23.1816C56.5692 29.1338 55.4606 34.6227 52.4661 35.4413C49.4715 36.2599 45.7248 32.0983 44.0977 26.1461C42.4705 20.1939 43.579 14.7051 46.5736 13.8865C49.5682 13.0678 53.3149 17.2294 54.942 23.1816Z" fill="#FFB900"/>
<path d="M39.5264 32.3448C40.2514 33.5436 40.7469 34.8831 40.9806 36.276C42.5035 36.0588 44.1319 36.2748 45.565 36.825C46.9981 37.3752 48.2642 38.2823 49.2423 39.4596C50.2203 40.6368 50.8776 42.0449 51.1514 43.5492C51.4251 45.0535 51.3061 46.6038 50.8058 48.0517C50.3054 49.4996 49.4404 50.7968 48.2934 51.8193C47.1465 52.8418 45.756 53.5554 44.2548 53.8919C42.7536 54.2283 41.192 54.1764 39.7192 53.7411C38.2464 53.3057 36.9275 52.4999 35.8585 51.4037C35.4953 52.8912 34.7548 54.2623 33.7079 55.3861C32.661 56.5098 31.3426 57.3485 29.8788 57.822C28.4151 58.2955 26.8548 58.388 25.3473 58.0906C23.8398 57.7932 22.4354 57.1159 21.2683 56.1234C20.1013 55.1309 19.2107 53.8564 18.6817 52.4218C18.1526 50.9872 18.0028 49.4404 18.2466 47.9293C18.4904 46.4183 19.1196 44.9935 20.074 43.7911C21.0285 42.5888 22.3032 41.5396 23.7251 40.9524C23.2223 39.6325 22.9724 38.2264 22.9917 36.8259C23.0111 35.4253 23.2993 34.0618 23.8374 32.8244C24.3756 31.587 25.1516 30.5034 26.1149 29.6445C27.0782 28.7857 28.2071 28.1707 29.4278 27.8399C30.6485 27.5091 31.9336 27.4698 33.1993 27.7246C34.4649 27.9794 35.6826 28.5226 36.7728 29.3187C37.8631 30.1148 38.8013 31.146 39.5264 32.3448Z" fill="#FFB900"/>
<path d="M15.9023 33.8539C17.5295 39.8061 16.421 45.2949 13.4264 46.1136C10.4318 46.9322 6.68512 42.7706 5.05796 36.8184C3.43081 30.8662 4.53933 25.3774 7.53392 24.5587C10.5285 23.7401 14.2752 27.9017 15.9023 33.8539Z" fill="#FFB900"/>
<path d="M40.9806 36.276L39.5012 36.5241C39.6359 37.327 40.3864 37.8758 41.1923 37.7609L40.9806 36.276ZM36.7728 29.3187L35.8882 30.5301L36.7728 29.3187ZM33.1993 27.7246L32.9032 29.1951L32.9032 29.1951L33.1993 27.7246ZM29.4278 27.8399L29.0354 26.3921L29.4278 27.8399ZM23.7251 40.9524L24.2976 42.3388C25.0484 42.0288 25.416 41.1775 25.1268 40.4184L23.7251 40.9524ZM20.074 43.7911L18.8992 42.8585L18.8992 42.8585L20.074 43.7911ZM18.2466 47.9293L19.7275 48.1683L19.7275 48.1683L18.2466 47.9293ZM18.6817 52.4218L17.2743 52.9408L18.6817 52.4218ZM21.2683 56.1234L22.2401 54.9807L22.2401 54.9807L21.2683 56.1234ZM35.8585 51.4037L36.9324 50.3564C36.5517 49.9661 35.9892 49.813 35.4632 49.9567C34.9372 50.1004 34.5307 50.5182 34.4013 51.0479L35.8585 51.4037ZM22.2595 15.9001C23.0246 18.699 23.1239 21.3183 22.7313 23.2625C22.3193 25.3023 21.4936 26.1372 20.8349 26.3173L21.626 29.2111C23.9619 28.5726 25.1877 26.2537 25.6719 23.8564C26.1754 21.3635 26.0153 18.2623 25.1533 15.109L22.2595 15.9001ZM20.8349 26.3173C20.1762 26.4974 19.0406 26.1986 17.6482 24.6521C16.3211 23.1779 15.0741 20.8724 14.309 18.0735L11.4151 18.8646C12.2771 22.0179 13.7171 24.7693 15.4187 26.6593C17.0551 28.4769 19.2901 29.8497 21.626 29.2111L20.8349 26.3173ZM14.309 18.0735C13.5438 15.2746 13.4445 12.6553 13.8372 10.7111C14.2492 8.67123 15.0748 7.83635 15.7335 7.65628L14.9425 4.76246C12.6066 5.40102 11.3807 7.71988 10.8966 10.1172C10.3931 12.61 10.5531 15.7113 11.4151 18.8646L14.309 18.0735ZM15.7335 7.65628C16.3923 7.47621 17.5278 7.77494 18.9202 9.32152C20.2474 10.7956 21.4944 13.1011 22.2595 15.9001L25.1533 15.109C24.2913 11.9557 22.8514 9.20433 21.1498 7.31426C19.5134 5.49665 17.2783 4.1239 14.9425 4.76246L15.7335 7.65628ZM37.4416 11.7497C38.2067 14.5487 38.306 17.1679 37.9134 19.1122C37.5014 21.152 36.6757 21.9869 36.017 22.167L36.8081 25.0608C39.144 24.4222 40.3698 22.1034 40.854 19.7061C41.3575 17.2132 41.1974 14.1119 40.3354 10.9587L37.4416 11.7497ZM36.017 22.167C35.3583 22.347 34.2227 22.0483 32.8303 20.5017C31.5032 19.0276 30.2562 16.7221 29.4911 13.9232L26.5972 14.7143C27.4592 17.8675 28.8992 20.6189 30.6008 22.509C32.2372 24.3266 34.4722 25.6993 36.8081 25.0608L36.017 22.167ZM29.4911 13.9232C28.7259 11.1242 28.6266 8.505 29.0193 6.56074C29.4313 4.5209 30.2569 3.68602 30.9157 3.50595L30.1246 0.612132C27.7887 1.25069 26.5628 3.56955 26.0787 5.96685C25.5752 8.45972 25.7352 11.561 26.5972 14.7143L29.4911 13.9232ZM30.9157 3.50595C31.5744 3.32588 32.7099 3.62461 34.1023 5.17119C35.4295 6.64531 36.6765 8.95081 37.4416 11.7497L40.3354 10.9587C39.4734 7.80539 38.0335 5.054 36.3319 3.16393C34.6955 1.34632 32.4605 -0.0264278 30.1246 0.612132L30.9157 3.50595ZM53.4951 23.5772C54.2603 26.3761 54.3595 28.9953 53.9669 30.9396C53.5549 32.9794 52.7292 33.8143 52.0705 33.9944L52.8616 36.8882C55.1975 36.2496 56.4233 33.9308 56.9075 31.5335C57.411 29.0406 57.2509 25.9393 56.3889 22.7861L53.4951 23.5772ZM52.0705 33.9944C51.4118 34.1745 50.2762 33.8757 48.8838 32.3291C47.5567 30.855 46.3097 28.5495 45.5446 25.7506L42.6507 26.5417C43.5128 29.6949 44.9527 32.4463 46.6543 34.3364C48.2907 36.154 50.5257 37.5268 52.8616 36.8882L52.0705 33.9944ZM45.5446 25.7506C44.7794 22.9517 44.6801 20.3324 45.0728 18.3882C45.4848 16.3483 46.3105 15.5134 46.9692 15.3334L46.1781 12.4395C43.8422 13.0781 42.6163 15.397 42.1322 17.7943C41.6287 20.2871 41.7887 23.3884 42.6507 26.5417L45.5446 25.7506ZM46.9692 15.3334C47.6279 15.1533 48.7634 15.452 50.1558 16.9986C51.483 18.4727 52.73 20.7782 53.4951 23.5772L56.3889 22.7861C55.5269 19.6328 54.087 16.8814 52.3854 14.9913C50.749 13.1737 48.514 11.801 46.1781 12.4395L46.9692 15.3334ZM42.4599 36.0278C42.1952 34.4497 41.6338 32.9307 40.8099 31.5685L38.2429 33.121C38.8691 34.1564 39.2987 35.3166 39.5012 36.5241L42.4599 36.0278ZM40.8099 31.5685C39.986 30.2062 38.9142 29.0251 37.6574 28.1073L35.8882 30.5301C36.8119 31.2046 37.6167 32.0857 38.2429 33.121L40.8099 31.5685ZM37.6574 28.1073C36.4002 27.1893 34.9833 26.5537 33.4953 26.2541L32.9032 29.1951C33.9465 29.4052 34.965 29.8559 35.8882 30.5301L37.6574 28.1073ZM33.4953 26.2541C32.0065 25.9543 30.4855 25.9991 29.0354 26.3921L29.8201 29.2877C30.8115 29.019 31.8608 28.9852 32.9032 29.1951L33.4953 26.2541ZM29.0354 26.3921C27.5853 26.7851 26.25 27.5144 25.1167 28.525L27.1132 30.7641C27.9064 30.0569 28.8288 29.5563 29.8201 29.2877L29.0354 26.3921ZM25.1167 28.525C23.984 29.5349 23.0826 30.799 22.4619 32.2262L25.213 33.4226C25.6686 32.3749 26.3193 31.472 27.1132 30.7641L25.1167 28.525ZM22.4619 32.2262C21.8414 33.6529 21.5139 35.2135 21.4919 36.8051L24.4916 36.8466C24.5083 35.6372 24.7571 34.4708 25.213 33.4226L22.4619 32.2262ZM21.4919 36.8051C21.4699 38.3968 21.7537 39.991 22.3234 41.4864L25.1268 40.4184C24.6909 39.2741 24.4749 38.0561 24.4916 36.8466L21.4919 36.8051ZM23.1525 39.566C21.4535 40.2676 19.9824 41.494 18.8992 42.8585L21.2489 44.7237C22.0746 43.6836 23.1529 42.8116 24.2976 42.3388L23.1525 39.566ZM18.8992 42.8585C17.7855 44.2614 17.0506 45.925 16.7658 47.6904L19.7275 48.1683C19.9302 46.9116 20.4536 45.7255 21.2489 44.7237L18.8992 42.8585ZM16.7658 47.6904C16.4809 49.456 16.6559 51.2638 17.2743 52.9408L20.089 51.9028C19.6494 50.7106 19.5247 49.4248 19.7275 48.1683L16.7658 47.6904ZM17.2743 52.9408C17.8927 54.6178 18.9336 56.1069 20.2966 57.266L22.2401 54.9807C21.2691 54.1549 20.5287 53.0951 20.089 51.9028L17.2743 52.9408ZM20.2966 57.266C21.6595 58.4251 23.2987 59.2154 25.057 59.5622L25.6376 56.6189C24.3808 56.371 23.2112 55.8066 22.2401 54.9807L20.2966 57.266ZM25.057 59.5622C26.8152 59.9091 28.6342 59.8011 30.3405 59.2492L29.4172 56.3948C28.1959 56.7899 26.8945 56.8669 25.6376 56.6189L25.057 59.5622ZM30.3405 59.2492C32.0468 58.6972 33.5841 57.7194 34.8054 56.4086L32.6104 54.3636C31.7378 55.3001 30.6384 55.9997 29.4172 56.3948L30.3405 59.2492ZM34.8054 56.4086C36.0267 55.0976 36.8914 53.4971 37.3157 51.7595L34.4013 51.0479C34.0992 52.2852 33.4829 53.427 32.6104 54.3636L34.8054 56.4086ZM41.1923 37.7609C42.4421 37.5827 43.8129 37.7592 45.0274 38.2254L46.1026 35.4247C44.4508 34.7905 42.5648 34.5349 40.7688 34.791L41.1923 37.7609ZM45.0274 38.2254C46.2214 38.6838 47.2751 39.439 48.0885 40.4181L50.396 38.501C49.2533 37.1255 47.7748 36.0666 46.1026 35.4247L45.0274 38.2254ZM48.0885 40.4181C48.9018 41.3971 49.4481 42.5676 49.6756 43.8178L52.6272 43.2807C52.3072 41.5223 51.5388 39.8766 50.396 38.501L48.0885 40.4181ZM49.6756 43.8178C49.9031 45.068 49.8044 46.357 49.388 47.5618L52.2235 48.5416C52.8079 46.8506 52.9471 45.0391 52.6272 43.2807L49.6756 43.8178ZM49.388 47.5618C48.9717 48.7666 48.2514 49.8473 47.2953 50.6997L49.2916 52.939C50.6293 51.7464 51.6391 50.2326 52.2235 48.5416L49.388 47.5618ZM47.2953 50.6997C46.339 51.5522 45.1793 52.1475 43.9268 52.4282L44.5829 55.3556C46.3327 54.9634 47.954 54.1315 49.2916 52.939L47.2953 50.6997ZM43.9268 52.4282C42.6743 52.7089 41.3719 52.6654 40.1444 52.3026L39.294 55.1795C41.0121 55.6874 42.833 55.7478 44.5829 55.3556L43.9268 52.4282ZM40.1444 52.3026C38.9232 51.9416 37.8262 51.273 36.9324 50.3564L34.7846 52.451C36.0288 53.7268 37.5696 54.6698 39.294 55.1795L40.1444 52.3026ZM14.4554 34.2494C15.2206 37.0484 15.3198 39.6676 14.9272 41.6119C14.5152 43.6517 13.6895 44.4866 13.0308 44.6667L13.8219 47.5605C16.1578 46.9219 17.3837 44.6031 17.8678 42.2058C18.3713 39.7129 18.2112 36.6116 17.3492 33.4584L14.4554 34.2494ZM13.0308 44.6667C12.3721 44.8467 11.2365 44.548 9.84415 43.0014C8.51701 41.5273 7.27002 39.2218 6.50487 36.4229L3.61105 37.214C4.47306 40.3672 5.91298 43.1186 7.6146 45.0087C9.25099 46.8263 11.486 48.199 13.8219 47.5605L13.0308 44.6667ZM6.50487 36.4229C5.73973 33.6239 5.64044 31.0047 6.0331 29.0604C6.44507 27.0206 7.27076 26.1857 7.92946 26.0056L7.13838 23.1118C4.8025 23.7504 3.57663 26.0692 3.09247 28.4665C2.58902 30.9594 2.74904 34.0607 3.61105 37.214L6.50487 36.4229ZM7.92946 26.0056C8.58817 25.8256 9.72375 26.1243 11.1161 27.6709C12.4433 29.145 13.6903 31.4505 14.4554 34.2494L17.3492 33.4584C16.4872 30.3051 15.0473 27.5537 13.3457 25.6636C11.7093 23.846 9.47426 22.4733 7.13838 23.1118L7.92946 26.0056Z" fill="#FFB900"/>
<path d="M40.9806 36.276L39.9944 36.4414C40.0841 36.9766 40.5845 37.3425 41.1217 37.2659L40.9806 36.276ZM33.1993 27.7246L33.0019 28.7049L33.0019 28.7049L33.1993 27.7246ZM29.4278 27.8399L29.1662 26.8747L29.4278 27.8399ZM23.7251 40.9524L24.1068 41.8767C24.6073 41.67 24.8523 41.1025 24.6596 40.5964L23.7251 40.9524ZM20.074 43.7911L19.2908 43.1694L19.2908 43.1694L20.074 43.7911ZM18.2466 47.9293L19.2338 48.0886L19.2338 48.0886L18.2466 47.9293ZM18.6817 52.4218L17.7434 52.7678L18.6817 52.4218ZM21.2683 56.1234L21.9162 55.3616L21.9162 55.3616L21.2683 56.1234ZM35.8585 51.4037L36.5744 50.7055C36.3206 50.4453 35.9456 50.3432 35.595 50.439C35.2443 50.5348 34.9733 50.8134 34.8871 51.1665L35.8585 51.4037ZM22.7418 15.7682C23.5231 18.6262 23.6325 21.3258 23.2214 23.3615C22.7974 25.4609 21.905 26.5431 20.9668 26.7996L21.4941 28.7288C23.5505 28.1667 24.7097 26.0951 25.1818 23.7574C25.6668 21.356 25.5169 18.335 24.671 15.2408L22.7418 15.7682ZM20.9668 26.7996C20.0285 27.0561 18.7097 26.5784 17.2766 24.9866C15.8871 23.4432 14.6079 21.0633 13.8267 18.2054L11.8974 18.7327C12.7433 21.827 14.1511 24.504 15.7903 26.3248C17.386 28.0972 19.4378 29.291 21.4941 28.7288L20.9668 26.7996ZM13.8267 18.2054C13.0454 15.3474 12.936 12.6478 13.3471 10.6121C13.7711 8.51267 14.6635 7.43046 15.6017 7.17398L15.0743 5.24477C13.018 5.80691 11.8588 7.87844 11.3867 10.2162C10.9017 12.6176 11.0516 15.6385 11.8974 18.7327L13.8267 18.2054ZM15.6017 7.17398C16.5399 6.91749 17.8588 7.39523 19.2918 8.98697C20.6814 10.5304 21.9605 12.9102 22.7418 15.7682L24.671 15.2408C23.8251 12.1466 22.4174 9.46954 20.7782 7.6488C19.1825 5.87637 17.1307 4.68262 15.0743 5.24477L15.6017 7.17398ZM37.9239 11.6179C38.7052 14.4759 38.8146 17.1755 38.4035 19.2112C37.9795 21.3106 37.0871 22.3928 36.1489 22.6493L36.6762 24.5785C38.7326 24.0163 39.8918 21.9448 40.3639 19.6071C40.8489 17.2057 40.699 14.1847 39.8531 11.0905L37.9239 11.6179ZM36.1489 22.6493C35.2106 22.9058 33.8918 22.428 32.4588 20.8363C31.0692 19.2928 29.79 16.913 29.0088 14.055L27.0795 14.5824C27.9254 17.6766 29.3332 20.3537 30.9724 22.1745C32.5681 23.9469 34.6199 25.1406 36.6762 24.5785L36.1489 22.6493ZM29.0088 14.055C28.2275 11.197 28.1181 8.49745 28.5292 6.46175C28.9532 4.36234 29.8456 3.28013 30.7838 3.02365L30.2564 1.09444C28.2001 1.65658 27.0409 3.72811 26.5688 6.06583C26.0838 8.46726 26.2337 11.4882 27.0795 14.5824L29.0088 14.055ZM30.7838 3.02365C31.722 2.76716 33.0409 3.24489 34.4739 4.83664C35.8635 6.38009 37.1426 8.7599 37.9239 11.6179L39.8531 11.0905C39.0073 7.99629 37.5995 5.31921 35.9603 3.49847C34.3646 1.72604 32.3128 0.53229 30.2564 1.09444L30.7838 3.02365ZM53.9774 23.4453C54.7587 26.3033 54.8681 29.0029 54.457 31.0386C54.033 33.138 53.1406 34.2202 52.2024 34.4767L52.7298 36.4059C54.7861 35.8438 55.9453 33.7722 56.4174 31.4345C56.9024 29.0331 56.7525 26.0121 55.9066 22.9179L53.9774 23.4453ZM52.2024 34.4767C51.2641 34.7332 49.9453 34.2554 48.5123 32.6637C47.1227 31.1202 45.8436 28.7404 45.0623 25.8824L43.1331 26.4098C43.9789 29.504 45.3867 32.1811 47.0259 34.0019C48.6216 35.7743 50.6734 36.968 52.7298 36.4059L52.2024 34.4767ZM45.0623 25.8824C44.281 23.0245 44.1716 20.3249 44.5827 18.2892C45.0067 16.1898 45.8991 15.1075 46.8373 14.8511L46.3099 12.9218C44.2536 13.484 43.0944 15.5555 42.6223 17.8932C42.1373 20.2947 42.2872 23.3156 43.1331 26.4098L45.0623 25.8824ZM46.8373 14.8511C47.7755 14.5946 49.0944 15.0723 50.5274 16.6641C51.917 18.2075 53.1961 20.5873 53.9774 23.4453L55.9066 22.9179C55.0608 19.8237 53.653 17.1466 52.0138 15.3259C50.4181 13.5534 48.3663 12.3597 46.3099 12.9218L46.8373 14.8511ZM41.9668 36.1105C41.7124 34.5942 41.173 33.135 40.3821 31.8273L38.6707 32.8623C39.3299 33.9521 39.7814 35.1721 39.9944 36.4414L41.9668 36.1105ZM40.3821 31.8273C39.5911 30.5195 38.5638 29.3883 37.3626 28.5111L36.1831 30.1263C37.1623 30.8414 38.0116 31.7725 38.6707 32.8623L40.3821 31.8273ZM37.3626 28.5111C36.161 27.6337 34.8105 27.0289 33.3966 26.7443L33.0019 28.7049C34.1193 28.9299 35.2042 29.4115 36.1831 30.1263L37.3626 28.5111ZM33.3966 26.7443C31.9822 26.4595 30.5398 26.5024 29.1662 26.8747L29.6894 28.8051C30.7571 28.5157 31.8851 28.4801 33.0019 28.7049L33.3966 26.7443ZM29.1662 26.8747C27.7926 27.247 26.5261 27.9382 25.4494 28.8981L26.7804 30.3909C27.6303 29.6332 28.6216 29.0945 29.6894 28.8051L29.1662 26.8747ZM25.4494 28.8981C24.3732 29.8577 23.5136 31.0616 22.9204 32.4256L24.7544 33.2232C25.2376 32.1123 25.9301 31.1491 26.7804 30.3909L25.4494 28.8981ZM22.9204 32.4256C22.3273 33.7892 22.0129 35.2841 21.9918 36.8121L23.9916 36.8397C24.0092 35.5666 24.2712 34.3344 24.7544 33.2232L22.9204 32.4256ZM21.9918 36.8121C21.9707 38.34 22.2432 39.8715 22.7906 41.3084L24.6596 40.5964C24.2013 39.3936 23.974 38.1129 23.9916 36.8397L21.9918 36.8121ZM23.3434 40.0281C21.7367 40.6916 20.3311 41.8589 19.2908 43.1694L20.8573 44.4129C21.7259 43.3186 22.8697 42.3876 24.1068 41.8767L23.3434 40.0281ZM19.2908 43.1694C18.2302 44.5055 17.5305 46.0894 17.2594 47.7701L19.2338 48.0886C19.4503 46.7472 20.009 45.4815 20.8573 44.4129L19.2908 43.1694ZM17.2594 47.7701C16.9882 49.4508 17.1548 51.1716 17.7434 52.7678L19.6199 52.0758C19.1504 50.8028 19.0174 49.43 19.2338 48.0886L17.2594 47.7701ZM17.7434 52.7678C18.3321 54.364 19.3228 55.7815 20.6205 56.8851L21.9162 55.3616C20.8798 54.4802 20.0894 53.3488 19.6199 52.0758L17.7434 52.7678ZM20.6205 56.8851C21.9181 57.9887 23.4791 58.7413 25.1538 59.0717L25.5408 57.1095C24.2005 56.8451 22.9526 56.243 21.9162 55.3616L20.6205 56.8851ZM25.1538 59.0717C26.8284 59.402 28.5612 59.2993 30.1866 58.7735L29.5711 56.8705C28.2689 57.2917 26.8812 57.3739 25.5408 57.1095L25.1538 59.0717ZM30.1866 58.7735C31.8121 58.2476 33.2764 57.3162 34.4396 56.0677L32.9762 54.7044C32.0456 55.7033 30.8732 56.4493 29.5711 56.8705L30.1866 58.7735ZM34.4396 56.0677C35.6028 54.8192 36.426 53.2951 36.83 51.6409L34.8871 51.1665C34.5646 52.4872 33.9069 53.7055 32.9762 54.7044L34.4396 56.0677ZM41.1217 37.2659C42.4625 37.0748 43.9193 37.2644 45.2066 37.7586L45.9234 35.8915C44.3445 35.2853 42.5444 35.0429 40.8394 35.286L41.1217 37.2659ZM45.2066 37.7586C46.4803 38.2476 47.6048 39.0535 48.4731 40.0986L50.0114 38.8205C48.9236 37.5111 47.5159 36.5028 45.9234 35.8915L45.2066 37.7586ZM48.4731 40.0986C49.3413 41.1437 49.9246 42.3934 50.1675 43.7283L52.1352 43.3702C51.8307 41.6965 51.0993 40.13 50.0114 38.8205L48.4731 40.0986ZM50.1675 43.7283C50.4104 45.0632 50.3049 46.4392 49.8606 47.7251L51.7509 48.3783C52.3073 46.7683 52.4398 45.0439 52.1352 43.3702L50.1675 43.7283ZM49.8606 47.7251C49.4162 49.0109 48.6478 50.1638 47.628 51.0729L48.9589 52.5658C50.233 51.4299 51.1945 49.9883 51.7509 48.3783L49.8606 47.7251ZM47.628 51.0729C46.6082 51.982 45.3715 52.6168 44.0361 52.9161L44.4735 54.8677C46.1405 54.4941 47.6848 53.7016 48.9589 52.5658L47.628 51.0729ZM44.0361 52.9161C42.7007 53.2154 41.312 53.1691 40.0027 52.7821L39.4358 54.7C41.0721 55.1837 42.8066 55.2413 44.4735 54.8677L44.0361 52.9161ZM40.0027 52.7821C38.6976 52.3963 37.5267 51.6819 36.5744 50.7055L35.1426 52.1019C36.3284 53.3178 37.7952 54.2151 39.4358 54.7L40.0027 52.7821ZM14.9377 34.1176C15.719 36.9756 15.8284 39.6752 15.4173 41.7109C14.9933 43.8103 14.1009 44.8925 13.1627 45.149L13.6901 47.0782C15.7464 46.516 16.9056 44.4445 17.3777 42.1068C17.8627 39.7053 17.7128 36.6844 16.8669 33.5902L14.9377 34.1176ZM13.1627 45.149C12.2244 45.4055 10.9056 44.9277 9.47256 43.336C8.083 41.7925 6.80386 39.4127 6.02257 36.5547L4.09336 37.0821C4.93922 40.1763 6.34698 42.8534 7.98619 44.6741C9.58191 46.4466 11.6337 47.6403 13.6901 47.0782L13.1627 45.149ZM6.02257 36.5547C5.24128 33.6967 5.13187 30.9971 5.543 28.9614C5.96699 26.862 6.85938 25.7798 7.79762 25.5233L7.27023 23.5941C5.21387 24.1563 4.0547 26.2278 3.58258 28.5655C3.09759 30.967 3.24749 33.9879 4.09336 37.0821L6.02257 36.5547ZM7.79762 25.5233C8.73585 25.2669 10.0547 25.7446 11.4877 27.3363C12.8773 28.8798 14.1564 31.2596 14.9377 34.1176L16.8669 33.5902C16.0211 30.496 14.6133 27.8189 12.9741 25.9982C11.3784 24.2257 9.32658 23.032 7.27023 23.5941L7.79762 25.5233Z" fill="#271300"/>
</g>
<defs>
<clipPath id="clip0_215_2">
<rect width="60" height="60" fill="white"/>
</clipPath>
</defs>
</svg>
