<svg width="50" height="50" viewBox="0 0 50 50" fill="none" xmlns="http://www.w3.org/2000/svg">
<g clip-path="url(#clip0_204_3)">
<circle cx="25" cy="25" r="24" fill="#271300" fill-opacity="0.8" stroke="#FFB900"/>
<path d="M39.6235 29.4603C40.09 29.3569 40.5685 29.3623 41.0099 29.474C41.4511 29.5857 41.8368 29.7989 42.131 30.0874C42.4247 30.3755 42.6179 30.7295 42.6946 31.1131C42.7714 31.4966 42.7302 31.9013 42.5712 32.2873C42.4121 32.6737 42.1399 33.0288 41.7778 33.3136C41.4157 33.5986 40.9787 33.8013 40.5111 33.8991C40.0436 33.9969 39.5658 33.9856 39.1269 33.8684C38.6882 33.7513 38.3065 33.5333 38.0175 33.2412M35.0635 30.4716C34.5975 30.5749 34.1637 30.7824 33.8061 31.071C33.4486 31.3594 33.182 31.7168 33.0287 32.1041C32.8756 32.4908 32.8402 32.895 32.9225 33.277C33.0048 33.659 33.203 34.0104 33.5009 34.2951C33.7992 34.5801 34.188 34.7889 34.6309 34.8959C35.0739 35.0029 35.5525 35.0035 36.0176 34.8956C36.4826 34.7878 36.9139 34.5762 37.2679 34.2845C37.6218 33.9928 37.884 33.6334 38.0323 33.2452M34.7076 30.3834C34.6006 29.9584 34.5657 29.5176 34.605 29.0878C34.6442 28.658 34.7569 28.2483 34.936 27.8834C35.1152 27.5186 35.3571 27.2063 35.6471 26.9656C35.9371 26.7249 36.269 26.5609 36.6227 26.4834C36.9765 26.4059 37.3446 26.4167 37.7047 26.515C38.0647 26.6133 38.4092 26.7971 38.7172 27.0552C39.0252 27.3134 39.2902 27.6405 39.4961 28.0165C39.7021 28.3926 39.8446 28.8098 39.915 29.2428M36.3441 21.9094C36.7088 23.6573 37.7336 24.9125 38.6331 24.7131C39.5325 24.5136 39.966 22.935 39.6013 21.1871C39.2366 19.4392 38.2119 18.1839 37.3124 18.3834C36.413 18.5828 35.9794 20.1615 36.3441 21.9094ZM31.784 22.9206C32.1487 24.6685 33.1735 25.9238 34.073 25.7243C34.9724 25.5248 35.4059 23.9462 35.0412 22.1983C34.6766 20.4504 33.6518 19.1952 32.7523 19.3946C31.8529 19.5941 31.4194 21.1727 31.784 22.9206ZM28.9319 28.8511C29.2966 30.599 30.3214 31.8543 31.2208 31.6548C32.1203 31.4554 32.5538 29.8767 32.1891 28.1288C31.8244 26.3809 30.7996 25.1257 29.9002 25.3251C29.0007 25.5246 28.5672 27.1032 28.9319 28.8511ZM41.3093 26.1064C41.674 27.8543 42.6988 29.1095 43.5982 28.9101C44.4977 28.7106 44.9312 27.132 44.5665 25.3841C44.2018 23.6362 43.177 22.3809 42.2776 22.5804C41.3781 22.7798 40.9446 24.3585 41.3093 26.1064Z" stroke="#FFB900"/>
<path d="M18.0858 34.7289C18.6612 34.8271 19.2002 35.054 19.648 35.384C20.0957 35.7139 20.4338 36.1331 20.6335 36.5952C20.8329 37.0567 20.8881 37.5464 20.798 38.0158C20.708 38.4852 20.4746 38.924 20.1167 39.2874C19.7583 39.6511 19.2865 39.9273 18.7454 40.0826C18.2042 40.2379 17.6163 40.2656 17.0421 40.1606C16.468 40.0555 15.9326 39.8223 15.4901 39.4872C15.0478 39.1523 14.7165 38.7296 14.5243 38.2657M12.4597 33.7692C11.8848 33.6711 11.2983 33.7058 10.7606 33.8673C10.223 34.0287 9.75641 34.31 9.40429 34.6775C9.0526 35.0444 8.82613 35.4855 8.74301 35.9556C8.6599 36.4258 8.72197 36.9148 8.92772 37.3744C9.13372 37.8345 9.47731 38.2501 9.92904 38.5755C10.3809 38.901 10.9222 39.1224 11.4981 39.215C12.0741 39.3075 12.6597 39.267 13.1948 39.1003C13.7298 38.9337 14.1922 38.6478 14.5392 38.2771M12.0978 33.5052C12.1728 32.975 12.3367 32.4602 12.5794 31.992C12.8221 31.5239 13.1386 31.1122 13.5096 30.782C13.8807 30.4519 14.2985 30.2102 14.7376 30.0717C15.1767 29.9331 15.628 29.9006 16.064 29.9762C16.4999 30.0517 16.9115 30.2337 17.2735 30.5111C17.6356 30.7884 17.9406 31.1553 18.1699 31.5895C18.3993 32.0237 18.5483 32.516 18.6077 33.0365C18.6672 33.557 18.636 34.0949 18.5159 34.6172M17.859 24.6724C17.4652 26.8183 18.0456 28.7113 19.1553 28.9006C20.265 29.0899 21.4838 27.5038 21.8776 25.3579C22.2714 23.212 21.691 21.3189 20.5813 21.1296C19.4716 20.9403 18.2528 22.5265 17.859 24.6724ZM12.233 23.7127C11.8392 25.8586 12.4195 27.7516 13.5293 27.9409C14.639 28.1302 15.8578 26.5441 16.2516 24.3982C16.6454 22.2523 16.065 20.3592 14.9553 20.1699C13.8456 19.9806 12.6268 21.5668 12.233 23.7127ZM6.26982 29.1069C5.87603 31.2528 6.45639 33.1458 7.5661 33.3351C8.6758 33.5244 9.89463 31.9383 10.2884 29.7924C10.6822 27.6465 10.1018 25.7534 8.99214 25.5641C7.88244 25.3748 6.66361 26.961 6.26982 29.1069ZM21.5405 31.7118C21.1467 33.8577 21.7271 35.7508 22.8368 35.9401C23.9465 36.1294 25.1653 34.5432 25.5591 32.3973C25.9529 30.2514 25.3725 28.3583 24.2628 28.1691C23.1531 27.9798 21.9343 29.5659 21.5405 31.7118Z" stroke="#FFB900"/>
<path d="M20 15L25 10L30 15" stroke="#FFB900" stroke-linecap="round" stroke-linejoin="round"/>
<path d="M20 10L25 5L30 10" stroke="#FFB900" stroke-linecap="round" stroke-linejoin="round"/>
</g>
<defs>
<clipPath id="clip0_204_3">
<rect width="50" height="50" fill="white"/>
</clipPath>
</defs>
</svg>
