<svg width="200" height="200" viewBox="0 0 200 200" fill="none" xmlns="http://www.w3.org/2000/svg">
<path d="M100 190L96.4498 193.521C97.3887 194.468 98.6667 195 100 195C101.333 195 102.611 194.468 103.55 193.521L100 190ZM155 71C155 98.7278 140.693 127.446 125.843 149.659C118.478 160.676 111.104 169.909 105.573 176.386C102.81 179.621 100.512 182.162 98.9125 183.886C98.113 184.747 97.4886 185.405 97.0683 185.842C96.8582 186.061 96.6991 186.225 96.5948 186.331C96.5427 186.385 96.5042 186.424 96.4799 186.449C96.4677 186.461 96.4591 186.47 96.4541 186.475C96.4516 186.477 96.4499 186.479 96.4492 186.48C96.4489 186.48 96.449 186.48 96.4488 186.48C96.4492 186.48 96.4498 186.479 100 190C103.55 193.521 103.551 193.52 103.553 193.518C103.553 193.518 103.555 193.516 103.556 193.515C103.559 193.512 103.563 193.508 103.568 193.503C103.577 193.493 103.59 193.48 103.607 193.463C103.64 193.429 103.688 193.381 103.749 193.318C103.872 193.192 104.05 193.009 104.279 192.77C104.738 192.293 105.403 191.593 106.244 190.687C107.926 188.873 110.315 186.231 113.177 182.88C118.896 176.185 126.522 166.636 134.157 155.216C149.307 132.554 165 101.772 165 71H155ZM100 190C103.55 186.479 103.551 186.48 103.551 186.48C103.551 186.48 103.551 186.48 103.551 186.48C103.55 186.479 103.548 186.477 103.546 186.475C103.541 186.47 103.532 186.461 103.52 186.449C103.496 186.424 103.457 186.385 103.405 186.331C103.301 186.225 103.142 186.061 102.932 185.842C102.511 185.405 101.887 184.747 101.088 183.886C99.4882 182.162 97.1904 179.621 94.427 176.386C88.8956 169.909 81.5223 160.676 74.1567 149.659C59.3072 127.446 45 98.7278 45 71H35C35 101.772 50.6928 132.554 65.8433 155.216C73.4777 166.636 81.1044 176.185 86.823 182.88C89.6846 186.231 92.0743 188.873 93.7562 190.687C94.5974 191.593 95.262 192.293 95.7206 192.77C95.9499 193.009 96.1278 193.192 96.2506 193.318C96.3119 193.381 96.3595 193.429 96.3929 193.463C96.4096 193.48 96.4227 193.493 96.4322 193.503C96.437 193.508 96.4408 193.512 96.4438 193.515C96.4452 193.516 96.4467 193.518 96.4475 193.518C96.4488 193.52 96.4498 193.521 100 190ZM45 71C45 40.6243 69.6243 16 100 16V6C64.1015 6 35 35.1015 35 71H45ZM100 16C130.376 16 155 40.6243 155 71H165C165 35.1015 135.899 6 100 6V16Z" fill="#FFB900"/>
<circle cx="100" cy="70" r="20" stroke="#FFB900" stroke-width="10"/>
</svg>
