<svg width="200" height="200" viewBox="0 0 200 200" fill="none" xmlns="http://www.w3.org/2000/svg">
<circle cx="100" cy="100" r="94" stroke="#FFB900" stroke-width="10"/>
<path d="M90.6 73.1428L75.1571 53.6714C67.1 53.6714 55.6857 57.0286 53.6714 73.1428C52.06 86.0343 71.8 110.295 79.8571 119.471C92.6143 131.557 117.726 151.566 132.229 145.657C146.731 139.749 146.776 128.424 144.986 123.5C139.167 118.8 126.857 109.266 124.171 108.729C121.486 108.191 118.129 111.19 116.786 112.757C113.563 115.443 111.862 116.114 111.414 116.114C96.3743 104.297 86.7952 91.4952 83.8857 86.5714C90.8686 79.5886 91.2714 74.7095 90.6 73.1428Z" fill="#FFB900"/>
</svg>
